<mxfile host="Electron" modified="2023-11-02T01:39:41.565Z" agent="Mozilla/5.0 (Windows NT 10.0; Win64; x64) AppleWebKit/537.36 (KHTML, like Gecko) draw.io/22.0.3 Chrome/114.0.5735.289 Electron/25.8.4 Safari/537.36" etag="y0XP1HTx5mnU-OfmgB_I" version="22.0.3" type="device">
  <diagram name="Page-1" id="3osXfzG-RZdLgRL4RFeL">
    <mxGraphModel dx="819" dy="478" grid="1" gridSize="10" guides="1" tooltips="1" connect="1" arrows="1" fold="1" page="1" pageScale="1" pageWidth="850" pageHeight="1100" math="0" shadow="0">
      <root>
        <mxCell id="0" />
        <mxCell id="1" parent="0" />
        <mxCell id="ssD1SB04ARJ-L6nwVhrA-23" style="rounded=0;orthogonalLoop=1;jettySize=auto;html=1;exitX=1;exitY=0;exitDx=0;exitDy=0;entryX=0;entryY=1;entryDx=0;entryDy=0;" edge="1" parent="1" source="ssD1SB04ARJ-L6nwVhrA-1" target="ssD1SB04ARJ-L6nwVhrA-2">
          <mxGeometry relative="1" as="geometry" />
        </mxCell>
        <mxCell id="ssD1SB04ARJ-L6nwVhrA-24" style="edgeStyle=orthogonalEdgeStyle;rounded=0;orthogonalLoop=1;jettySize=auto;html=1;exitX=1;exitY=0.5;exitDx=0;exitDy=0;" edge="1" parent="1" source="ssD1SB04ARJ-L6nwVhrA-1" target="ssD1SB04ARJ-L6nwVhrA-3">
          <mxGeometry relative="1" as="geometry" />
        </mxCell>
        <mxCell id="ssD1SB04ARJ-L6nwVhrA-25" style="rounded=0;orthogonalLoop=1;jettySize=auto;html=1;exitX=1;exitY=1;exitDx=0;exitDy=0;entryX=0;entryY=0;entryDx=0;entryDy=0;" edge="1" parent="1" source="ssD1SB04ARJ-L6nwVhrA-1" target="ssD1SB04ARJ-L6nwVhrA-4">
          <mxGeometry relative="1" as="geometry" />
        </mxCell>
        <mxCell id="ssD1SB04ARJ-L6nwVhrA-1" value="0" style="ellipse;whiteSpace=wrap;html=1;aspect=fixed;labelBackgroundColor=none;rounded=1;" vertex="1" parent="1">
          <mxGeometry x="210" y="200" width="50" height="50" as="geometry" />
        </mxCell>
        <mxCell id="ssD1SB04ARJ-L6nwVhrA-27" style="edgeStyle=none;shape=connector;rounded=0;orthogonalLoop=1;jettySize=auto;html=1;exitX=1;exitY=0.5;exitDx=0;exitDy=0;labelBackgroundColor=default;strokeColor=default;align=center;verticalAlign=middle;fontFamily=Helvetica;fontSize=11;fontColor=default;endArrow=classic;" edge="1" parent="1" source="ssD1SB04ARJ-L6nwVhrA-2" target="ssD1SB04ARJ-L6nwVhrA-6">
          <mxGeometry relative="1" as="geometry" />
        </mxCell>
        <mxCell id="ssD1SB04ARJ-L6nwVhrA-2" value="1" style="ellipse;whiteSpace=wrap;html=1;aspect=fixed;labelBackgroundColor=none;rounded=1;" vertex="1" parent="1">
          <mxGeometry x="300" y="100" width="50" height="50" as="geometry" />
        </mxCell>
        <mxCell id="ssD1SB04ARJ-L6nwVhrA-26" style="edgeStyle=none;shape=connector;rounded=0;orthogonalLoop=1;jettySize=auto;html=1;exitX=0;exitY=0;exitDx=0;exitDy=0;labelBackgroundColor=default;strokeColor=default;align=center;verticalAlign=middle;fontFamily=Helvetica;fontSize=11;fontColor=default;endArrow=classic;entryX=0.774;entryY=0.886;entryDx=0;entryDy=0;entryPerimeter=0;" edge="1" parent="1" source="ssD1SB04ARJ-L6nwVhrA-3" target="ssD1SB04ARJ-L6nwVhrA-2">
          <mxGeometry relative="1" as="geometry" />
        </mxCell>
        <mxCell id="ssD1SB04ARJ-L6nwVhrA-28" style="edgeStyle=none;shape=connector;rounded=0;orthogonalLoop=1;jettySize=auto;html=1;exitX=1;exitY=0;exitDx=0;exitDy=0;entryX=0;entryY=1;entryDx=0;entryDy=0;labelBackgroundColor=default;strokeColor=default;align=center;verticalAlign=middle;fontFamily=Helvetica;fontSize=11;fontColor=default;endArrow=classic;" edge="1" parent="1" source="ssD1SB04ARJ-L6nwVhrA-3" target="ssD1SB04ARJ-L6nwVhrA-6">
          <mxGeometry relative="1" as="geometry" />
        </mxCell>
        <mxCell id="ssD1SB04ARJ-L6nwVhrA-29" style="edgeStyle=none;shape=connector;rounded=0;orthogonalLoop=1;jettySize=auto;html=1;exitX=1;exitY=1;exitDx=0;exitDy=0;entryX=0;entryY=0;entryDx=0;entryDy=0;labelBackgroundColor=default;strokeColor=default;align=center;verticalAlign=middle;fontFamily=Helvetica;fontSize=11;fontColor=default;endArrow=classic;" edge="1" parent="1" source="ssD1SB04ARJ-L6nwVhrA-3" target="ssD1SB04ARJ-L6nwVhrA-5">
          <mxGeometry relative="1" as="geometry" />
        </mxCell>
        <mxCell id="ssD1SB04ARJ-L6nwVhrA-3" value="3" style="ellipse;whiteSpace=wrap;html=1;aspect=fixed;labelBackgroundColor=none;rounded=1;" vertex="1" parent="1">
          <mxGeometry x="375" y="200" width="50" height="50" as="geometry" />
        </mxCell>
        <mxCell id="ssD1SB04ARJ-L6nwVhrA-4" value="2" style="ellipse;whiteSpace=wrap;html=1;aspect=fixed;labelBackgroundColor=none;rounded=1;" vertex="1" parent="1">
          <mxGeometry x="325" y="300" width="50" height="50" as="geometry" />
        </mxCell>
        <mxCell id="ssD1SB04ARJ-L6nwVhrA-31" style="edgeStyle=none;shape=connector;rounded=0;orthogonalLoop=1;jettySize=auto;html=1;exitX=1;exitY=0;exitDx=0;exitDy=0;entryX=0;entryY=1;entryDx=0;entryDy=0;labelBackgroundColor=default;strokeColor=default;align=center;verticalAlign=middle;fontFamily=Helvetica;fontSize=11;fontColor=default;endArrow=classic;" edge="1" parent="1" source="ssD1SB04ARJ-L6nwVhrA-5" target="ssD1SB04ARJ-L6nwVhrA-7">
          <mxGeometry relative="1" as="geometry" />
        </mxCell>
        <mxCell id="ssD1SB04ARJ-L6nwVhrA-5" value="4" style="ellipse;whiteSpace=wrap;html=1;aspect=fixed;labelBackgroundColor=none;rounded=1;" vertex="1" parent="1">
          <mxGeometry x="475" y="290" width="50" height="50" as="geometry" />
        </mxCell>
        <mxCell id="ssD1SB04ARJ-L6nwVhrA-30" style="edgeStyle=none;shape=connector;rounded=0;orthogonalLoop=1;jettySize=auto;html=1;exitX=1;exitY=1;exitDx=0;exitDy=0;entryX=0;entryY=0;entryDx=0;entryDy=0;labelBackgroundColor=default;strokeColor=default;align=center;verticalAlign=middle;fontFamily=Helvetica;fontSize=11;fontColor=default;endArrow=classic;" edge="1" parent="1" source="ssD1SB04ARJ-L6nwVhrA-6" target="ssD1SB04ARJ-L6nwVhrA-7">
          <mxGeometry relative="1" as="geometry" />
        </mxCell>
        <mxCell id="ssD1SB04ARJ-L6nwVhrA-6" value="5" style="ellipse;whiteSpace=wrap;html=1;aspect=fixed;labelBackgroundColor=none;rounded=1;" vertex="1" parent="1">
          <mxGeometry x="460" y="100" width="50" height="50" as="geometry" />
        </mxCell>
        <mxCell id="ssD1SB04ARJ-L6nwVhrA-7" value="6" style="ellipse;whiteSpace=wrap;html=1;aspect=fixed;labelBackgroundColor=none;rounded=1;" vertex="1" parent="1">
          <mxGeometry x="540" y="200" width="50" height="50" as="geometry" />
        </mxCell>
        <mxCell id="ssD1SB04ARJ-L6nwVhrA-36" value="" style="edgeStyle=none;shape=connector;rounded=0;orthogonalLoop=1;jettySize=auto;html=1;labelBackgroundColor=default;strokeColor=default;align=center;verticalAlign=middle;fontFamily=Helvetica;fontSize=11;fontColor=default;endArrow=classic;" edge="1" parent="1" source="ssD1SB04ARJ-L6nwVhrA-32" target="ssD1SB04ARJ-L6nwVhrA-35">
          <mxGeometry relative="1" as="geometry" />
        </mxCell>
        <mxCell id="ssD1SB04ARJ-L6nwVhrA-32" value="0" style="ellipse;whiteSpace=wrap;html=1;aspect=fixed;fontFamily=Helvetica;fontSize=11;fontColor=default;" vertex="1" parent="1">
          <mxGeometry x="140" y="610" width="50" height="50" as="geometry" />
        </mxCell>
        <mxCell id="ssD1SB04ARJ-L6nwVhrA-38" value="" style="edgeStyle=none;shape=connector;rounded=0;orthogonalLoop=1;jettySize=auto;html=1;labelBackgroundColor=default;strokeColor=default;align=center;verticalAlign=middle;fontFamily=Helvetica;fontSize=11;fontColor=default;endArrow=classic;" edge="1" parent="1" source="ssD1SB04ARJ-L6nwVhrA-35" target="ssD1SB04ARJ-L6nwVhrA-37">
          <mxGeometry relative="1" as="geometry" />
        </mxCell>
        <mxCell id="ssD1SB04ARJ-L6nwVhrA-40" value="" style="edgeStyle=none;shape=connector;rounded=0;orthogonalLoop=1;jettySize=auto;html=1;labelBackgroundColor=default;strokeColor=default;align=center;verticalAlign=middle;fontFamily=Helvetica;fontSize=11;fontColor=default;endArrow=classic;" edge="1" parent="1" source="ssD1SB04ARJ-L6nwVhrA-35" target="ssD1SB04ARJ-L6nwVhrA-39">
          <mxGeometry relative="1" as="geometry" />
        </mxCell>
        <mxCell id="ssD1SB04ARJ-L6nwVhrA-44" value="" style="edgeStyle=none;shape=connector;rounded=0;orthogonalLoop=1;jettySize=auto;html=1;labelBackgroundColor=default;strokeColor=default;align=center;verticalAlign=middle;fontFamily=Helvetica;fontSize=11;fontColor=default;endArrow=classic;" edge="1" parent="1" source="ssD1SB04ARJ-L6nwVhrA-35" target="ssD1SB04ARJ-L6nwVhrA-43">
          <mxGeometry relative="1" as="geometry" />
        </mxCell>
        <mxCell id="ssD1SB04ARJ-L6nwVhrA-35" value="1" style="ellipse;whiteSpace=wrap;html=1;aspect=fixed;fontFamily=Helvetica;fontSize=11;fontColor=default;" vertex="1" parent="1">
          <mxGeometry x="250" y="610" width="50" height="50" as="geometry" />
        </mxCell>
        <mxCell id="ssD1SB04ARJ-L6nwVhrA-45" style="edgeStyle=none;shape=connector;rounded=0;orthogonalLoop=1;jettySize=auto;html=1;exitX=0;exitY=1;exitDx=0;exitDy=0;entryX=1;entryY=0;entryDx=0;entryDy=0;labelBackgroundColor=default;strokeColor=default;align=center;verticalAlign=middle;fontFamily=Helvetica;fontSize=11;fontColor=default;endArrow=classic;" edge="1" parent="1" source="ssD1SB04ARJ-L6nwVhrA-37" target="ssD1SB04ARJ-L6nwVhrA-32">
          <mxGeometry relative="1" as="geometry" />
        </mxCell>
        <mxCell id="ssD1SB04ARJ-L6nwVhrA-37" value="2" style="ellipse;whiteSpace=wrap;html=1;aspect=fixed;fontFamily=Helvetica;fontSize=11;fontColor=default;" vertex="1" parent="1">
          <mxGeometry x="250" y="480" width="50" height="50" as="geometry" />
        </mxCell>
        <mxCell id="ssD1SB04ARJ-L6nwVhrA-47" style="edgeStyle=none;shape=connector;rounded=0;orthogonalLoop=1;jettySize=auto;html=1;exitX=1;exitY=0;exitDx=0;exitDy=0;entryX=0;entryY=1;entryDx=0;entryDy=0;labelBackgroundColor=default;strokeColor=default;align=center;verticalAlign=middle;fontFamily=Helvetica;fontSize=11;fontColor=default;endArrow=classic;" edge="1" parent="1" source="ssD1SB04ARJ-L6nwVhrA-39" target="ssD1SB04ARJ-L6nwVhrA-43">
          <mxGeometry relative="1" as="geometry" />
        </mxCell>
        <mxCell id="ssD1SB04ARJ-L6nwVhrA-39" value="4" style="ellipse;whiteSpace=wrap;html=1;aspect=fixed;fontFamily=Helvetica;fontSize=11;fontColor=default;" vertex="1" parent="1">
          <mxGeometry x="250" y="730" width="50" height="50" as="geometry" />
        </mxCell>
        <mxCell id="ssD1SB04ARJ-L6nwVhrA-49" value="" style="edgeStyle=none;shape=connector;rounded=0;orthogonalLoop=1;jettySize=auto;html=1;labelBackgroundColor=default;strokeColor=default;align=center;verticalAlign=middle;fontFamily=Helvetica;fontSize=11;fontColor=default;endArrow=classic;" edge="1" parent="1" source="ssD1SB04ARJ-L6nwVhrA-41" target="ssD1SB04ARJ-L6nwVhrA-48">
          <mxGeometry relative="1" as="geometry" />
        </mxCell>
        <mxCell id="ssD1SB04ARJ-L6nwVhrA-41" value="5" style="ellipse;whiteSpace=wrap;html=1;aspect=fixed;fontFamily=Helvetica;fontSize=11;fontColor=default;" vertex="1" parent="1">
          <mxGeometry x="475" y="610" width="50" height="50" as="geometry" />
        </mxCell>
        <mxCell id="ssD1SB04ARJ-L6nwVhrA-46" style="edgeStyle=none;shape=connector;rounded=0;orthogonalLoop=1;jettySize=auto;html=1;exitX=0.5;exitY=0;exitDx=0;exitDy=0;entryX=1;entryY=1;entryDx=0;entryDy=0;labelBackgroundColor=default;strokeColor=default;align=center;verticalAlign=middle;fontFamily=Helvetica;fontSize=11;fontColor=default;endArrow=classic;" edge="1" parent="1" source="ssD1SB04ARJ-L6nwVhrA-43" target="ssD1SB04ARJ-L6nwVhrA-37">
          <mxGeometry relative="1" as="geometry" />
        </mxCell>
        <mxCell id="ssD1SB04ARJ-L6nwVhrA-43" value="3" style="ellipse;whiteSpace=wrap;html=1;aspect=fixed;fontFamily=Helvetica;fontSize=11;fontColor=default;" vertex="1" parent="1">
          <mxGeometry x="350" y="610" width="50" height="50" as="geometry" />
        </mxCell>
        <mxCell id="ssD1SB04ARJ-L6nwVhrA-51" value="" style="edgeStyle=none;shape=connector;rounded=0;orthogonalLoop=1;jettySize=auto;html=1;labelBackgroundColor=default;strokeColor=default;align=center;verticalAlign=middle;fontFamily=Helvetica;fontSize=11;fontColor=default;endArrow=classic;" edge="1" parent="1" source="ssD1SB04ARJ-L6nwVhrA-48" target="ssD1SB04ARJ-L6nwVhrA-50">
          <mxGeometry relative="1" as="geometry" />
        </mxCell>
        <mxCell id="ssD1SB04ARJ-L6nwVhrA-48" value="6" style="ellipse;whiteSpace=wrap;html=1;aspect=fixed;fontFamily=Helvetica;fontSize=11;fontColor=default;" vertex="1" parent="1">
          <mxGeometry x="605" y="610" width="50" height="50" as="geometry" />
        </mxCell>
        <mxCell id="ssD1SB04ARJ-L6nwVhrA-52" style="edgeStyle=none;shape=connector;rounded=0;orthogonalLoop=1;jettySize=auto;html=1;exitX=0;exitY=1;exitDx=0;exitDy=0;labelBackgroundColor=default;strokeColor=default;align=center;verticalAlign=middle;fontFamily=Helvetica;fontSize=11;fontColor=default;endArrow=classic;" edge="1" parent="1" source="ssD1SB04ARJ-L6nwVhrA-50" target="ssD1SB04ARJ-L6nwVhrA-41">
          <mxGeometry relative="1" as="geometry" />
        </mxCell>
        <mxCell id="ssD1SB04ARJ-L6nwVhrA-50" value="7" style="ellipse;whiteSpace=wrap;html=1;aspect=fixed;fontFamily=Helvetica;fontSize=11;fontColor=default;" vertex="1" parent="1">
          <mxGeometry x="605" y="480" width="50" height="50" as="geometry" />
        </mxCell>
      </root>
    </mxGraphModel>
  </diagram>
</mxfile>
